<svg xmlns="http://www.w3.org/2000/svg" fill="none" viewBox="-0.5 -0.5 24 24" id="Quick-Reference-All-Fill--Streamline-Outlined-Fill-Material-Symbols.svg" height="24" width="24"><desc>Quick Reference All Fill Streamline Icon: https://streamlinehq.com</desc><path fill="#000000" d="M15.8125 18.447916666666668c0.7347062500000001 0 1.3576229166666667 -0.2515625 1.8687500000000001 -0.7546875 0.5111270833333333 -0.503125 0.7666666666666667 -1.13001875 0.7666666666666667 -1.8807291666666666 0 -0.7347062500000001 -0.2555395833333333 -1.3576229166666667 -0.7666666666666667 -1.8687500000000001s-1.13404375 -0.7666666666666667 -1.8687500000000001 -0.7666666666666667c-0.7507104166666667 0 -1.3776041666666667 0.2555395833333333 -1.8807291666666666 0.7666666666666667 -0.503125 0.5111270833333333 -0.7546875 1.13404375 -0.7546875 1.8687500000000001 0 0.7507104166666667 0.2515625 1.3776041666666667 0.7546875 1.8807291666666666 0.503125 0.503125 1.13001875 0.7546875 1.8807291666666666 0.7546875Zm4.8875 3.2583333333333333L18.136458333333334 19.166666666666668c-0.33541666666666664 0.22362708333333334 -0.6987687499999999 0.39928958333333336 -1.0901041666666667 0.5270833333333333 -0.39133541666666666 0.12779375 -0.8026041666666667 0.19166666666666668 -1.2338541666666667 0.19166666666666668 -1.13404375 0 -2.096354166666667 -0.3953125 -2.886979166666667 -1.1859375 -0.790625 -0.790625 -1.1859375 -1.7529354166666669 -1.1859375 -2.886979166666667 0 -1.1180395833333334 0.3953125 -2.076372916666667 1.1859375 -2.875 0.790625 -0.7986270833333334 1.7529354166666669 -1.1979166666666667 2.886979166666667 -1.1979166666666667 1.1180395833333334 0 2.076372916666667 0.39928958333333336 2.875 1.1979166666666667 0.7986270833333334 0.7986270833333334 1.1979166666666667 1.7569604166666668 1.1979166666666667 2.875 0 0.44720625 -0.06789791666666667 0.8664770833333334 -0.20364583333333333 1.2578125S19.36633541666667 17.825000000000003 19.142708333333335 18.160416666666666l2.5395833333333333 2.5395833333333333 -0.9822916666666667 1.00625ZM4.3125 21.083333333333336c-0.38333333333333336 0 -0.71875 -0.14375 -1.00625 -0.43125 -0.2875 -0.2875 -0.43125 -0.6229166666666667 -0.43125 -1.00625V3.354166666666667c0 -0.38333333333333336 0.14375 -0.71875 0.43125 -1.00625C3.59375 2.060416666666667 3.9291666666666667 1.9166666666666667 4.3125 1.9166666666666667h8.648958333333335L18.208333333333336 7.163541666666666v3.6895833333333337c-0.38333333333333336 -0.17571041666666667 -0.77466875 -0.31145833333333334 -1.1739583333333334 -0.40729166666666666 -0.39928958333333336 -0.09583333333333334 -0.80658125 -0.14375 -1.221875 -0.14375 -0.6708333333333333 0 -1.2977270833333334 0.10383541666666667 -1.8807291666666666 0.31145833333333334S12.825710416666666 11.116666666666667 12.3625 11.5H6.684375v1.4375h4.432291666666667c-0.23958333333333334 0.38333333333333336 -0.4272729166666667 0.7986270833333334 -0.5630208333333334 1.2458333333333333s-0.21960208333333334 0.9104166666666667 -0.2515625 1.3895833333333334h-3.6177083333333333v1.4375h3.7375000000000003c0.22362708333333334 0.9583333333333334 0.66685625 1.8048770833333334 1.3296875 2.5395833333333333 0.66283125 0.7347062500000001 1.4734375000000002 1.2458333333333333 2.4317708333333337 1.5333333333333334H4.3125Zm7.930208333333334 -13.272916666666667H16.770833333333336L12.242708333333335 3.354166666666667v4.456250000000001Z" stroke-width="1"></path></svg>