<svg xmlns="http://www.w3.org/2000/svg" fill="none" viewBox="-0.5 -0.5 24 24" id="Folder-Supervised-Fill--Streamline-Outlined-Fill-Material-Symbols.svg" height="24" width="24"><desc>Folder Supervised Fill Streamline Icon: https://streamlinehq.com</desc><path fill="#000000" d="M3.354166666666667 19.166666666666668c-0.38333333333333336 0 -0.71875 -0.14772708333333334 -1.00625 -0.44322916666666673C2.060416666666667 18.427935416666667 1.9166666666666667 18.096543750000002 1.9166666666666667 17.729166666666668V5.270833333333334c0 -0.36737708333333335 0.14375 -0.698783125 0.43125 -0.9942708333333334C2.635416666666667 3.981074791666667 2.9708333333333337 3.8333333333333335 3.354166666666667 3.8333333333333335h6.732291666666668l1.4375 1.4375H19.645833333333336c0.36737708333333335 0 0.6987687499999999 0.14772708333333334 0.9942708333333334 0.44322916666666673 0.29550208333333333 0.29550208333333333 0.44322916666666673 0.62689375 0.44322916666666673 0.9942708333333334v4.647916666666666c-0.5590437500000001 -0.41529375 -1.1580020833333333 -0.7347062500000001 -1.796875 -0.9583333333333334 -0.6388729166666667 -0.22362708333333334 -1.30970625 -0.33541666666666664 -2.0125 -0.33541666666666664 -1.7888729166666666 0 -3.2742895833333336 0.6189395833333334 -4.456250000000001 1.8567708333333335 -1.1819604166666666 1.23783125 -1.772916666666667 2.6953125 -1.772916666666667 4.372395833333334 0 0.5111270833333333 0.059895833333333336 1.00625 0.1796875 1.4854166666666668s0.29147708333333333 0.9423770833333334 0.5151041666666667 1.3895833333333334H3.354166666666667Zm10.086458333333335 0v-0.4552083333333333c0 -0.6708333333333333 0.33939375000000005 -1.1899145833333333 1.0182291666666667 -1.5572916666666667 0.6788354166666667 -0.36737708333333335 1.6171875 -0.5510416666666667 2.815104166666667 -0.5510416666666667s2.13626875 0.18366458333333333 2.815104166666667 0.5510416666666667c0.6788354166666667 0.36737708333333335 1.0182291666666667 0.8864583333333335 1.0182291666666667 1.5572916666666667V19.166666666666668h-7.666666666666667Zm3.8333333333333335 -4.16875c-0.4791666666666667 0 -0.8904354166666667 -0.17168541666666667 -1.2338541666666667 -0.5151041666666667 -0.34341875 -0.34341875 -0.5151041666666667 -0.7546875 -0.5151041666666667 -1.2338541666666667 0 -0.4791666666666667 0.17168541666666667 -0.8904354166666667 0.5151041666666667 -1.2338541666666667C16.383522916666667 11.671685416666667 16.794791666666665 11.5 17.273958333333333 11.5c0.4791666666666667 0 0.8904354166666667 0.17168541666666667 1.2338541666666667 0.5151041666666667 0.34341875 0.34341875 0.5151041666666667 0.7546875 0.5151041666666667 1.2338541666666667 0 0.4791666666666667 -0.17168541666666667 0.8904354166666667 -0.5151041666666667 1.2338541666666667 -0.34341875 0.34341875 -0.7546875 0.5151041666666667 -1.2338541666666667 0.5151041666666667Z" stroke-width="1"></path></svg>