<svg viewBox="-0.5 -0.5 16 16" fill="#000000" xmlns="http://www.w3.org/2000/svg" id="More-2-Fill--Streamline-Remix-Fill.svg" height="16" width="16"><desc>More 2 Fill Streamline Icon: https://streamlinehq.com</desc><path d="M7.5 1.875c-0.6875 0 -1.25 0.5625 -1.25 1.25s0.5625 1.25 1.25 1.25 1.25 -0.5625 1.25 -1.25 -0.5625 -1.25 -1.25 -1.25Zm0 8.75c-0.6875 0 -1.25 0.5625 -1.25 1.25s0.5625 1.25 1.25 1.25 1.25 -0.5625 1.25 -1.25 -0.5625 -1.25 -1.25 -1.25Zm0 -4.375c-0.6875 0 -1.25 0.5625 -1.25 1.25s0.5625 1.25 1.25 1.25 1.25 -0.5625 1.25 -1.25 -0.5625 -1.25 -1.25 -1.25Z" stroke-width="1"></path></svg>