<svg xmlns="http://www.w3.org/2000/svg" fill="none" viewBox="-0.5 -0.5 24 24" id="Person-Book-Fill--Streamline-Outlined-Fill-Material-Symbols.svg" height="24" width="24"><desc>Person Book Fill Streamline Icon: https://streamlinehq.com</desc><path fill="#000000" d="M11.5 15.764583333333333c-1.1819604166666666 0 -2.2960229166666664 0.19564375 -3.3421875 0.5869791666666667 -1.0461645833333333 0.39133541666666666 -2.0085229166666667 0.9223958333333334 -2.886979166666667 1.593229166666667V19.645833333333336h12.458333333333334v-1.7010416666666666c-0.87845625 -0.6708333333333333 -1.8408145833333334 -1.2018937500000002 -2.886979166666667 -1.593229166666667C13.796022916666667 15.960227083333335 12.681960416666668 15.764583333333333 11.5 15.764583333333333ZM5.270833333333334 21.083333333333336c-0.38333333333333336 0 -0.71875 -0.14375 -1.00625 -0.43125 -0.2875 -0.2875 -0.43125 -0.6229166666666667 -0.43125 -1.00625V3.354166666666667c0 -0.38333333333333336 0.14375 -0.71875 0.43125 -1.00625 0.2875 -0.2875 0.6229166666666667 -0.43125 1.00625 -0.43125h12.458333333333334c0.38333333333333336 0 0.71875 0.14375 1.00625 0.43125 0.2875 0.2875 0.43125 0.6229166666666667 0.43125 1.00625v16.291666666666668c0 0.38333333333333336 -0.14375 0.71875 -0.43125 1.00625 -0.2875 0.2875 -0.6229166666666667 0.43125 -1.00625 0.43125H5.270833333333334Zm6.277083333333334 -7.211458333333334c0.9263729166666667 0 1.70904375 -0.31946041666666664 2.347916666666667 -0.9583333333333334 0.6388729166666667 -0.6388729166666667 0.9583333333333334 -1.42154375 0.9583333333333334 -2.347916666666667 0 -0.9263729166666667 -0.31946041666666664 -1.70904375 -0.9583333333333334 -2.347916666666667 -0.6388729166666667 -0.6388729166666667 -1.42154375 -0.9583333333333334 -2.347916666666667 -0.9583333333333334 -0.9263729166666667 0 -1.70904375 0.31946041666666664 -2.347916666666667 0.9583333333333334 -0.6388729166666667 0.6388729166666667 -0.9583333333333334 1.42154375 -0.9583333333333334 2.347916666666667 0 0.9263729166666667 0.31946041666666664 1.70904375 0.9583333333333334 2.347916666666667 0.6388729166666667 0.6388729166666667 1.42154375 0.9583333333333334 2.347916666666667 0.9583333333333334Z" stroke-width="1"></path></svg>