<svg xmlns="http://www.w3.org/2000/svg" fill="none" viewBox="-0.5 -0.5 24 24" id="Add-Notes-Fill--Streamline-Outlined-Fill-Material-Symbols.svg" height="24" width="24"><desc>Add Notes Fill Streamline Icon: https://streamlinehq.com</desc><path fill="#000000" d="M17.202083333333334 20.580208333333335h0.790625v-2.635416666666667h2.635416666666667V17.154166666666665h-2.635416666666667v-2.635416666666667H17.202083333333334v2.635416666666667h-2.635416666666667v0.790625h2.635416666666667v2.635416666666667Zm0.359375 1.4375c-1.2458333333333333 0 -2.3080020833333332 -0.44322916666666673 -3.186458333333334 -1.3296875 -0.87845625 -0.8864583333333335 -1.3177083333333335 -1.9366479166666666 -1.3177083333333335 -3.1505208333333337 0 -1.2458333333333333 0.4392520833333333 -2.3119791666666667 1.3177083333333335 -3.1984375 0.87845625 -0.8864583333333335 1.940625 -1.3296875 3.186458333333334 -1.3296875 1.2298770833333335 0 2.2880208333333334 0.44322916666666673 3.174479166666667 1.3296875 0.8864583333333335 0.8864583333333335 1.3296875 1.952604166666667 1.3296875 3.1984375 0 1.2138729166666669 -0.44322916666666673 2.2640625 -1.3296875 3.1505208333333337 -0.8864583333333335 0.8864583333333335 -1.9446020833333335 1.3296875 -3.174479166666667 1.3296875ZM6.708333333333334 8.145833333333334h9.583333333333334v-1.4375H6.708333333333334v1.4375Zm5.510416666666667 11.979166666666668H4.3125c-0.3993039583333334 0 -0.738716875 -0.1397729166666667 -1.0182291666666667 -0.41927083333333337C3.0147585416666667 19.42623125 2.875 19.086789583333335 2.875 18.6875V4.3125c0 -0.3993039583333334 0.13975854166666665 -0.738716875 0.41927083333333337 -1.0182291666666667C3.5737831250000003 3.0147585416666667 3.9131960416666667 2.875 4.3125 2.875h14.375c0.39928958333333336 0 0.7387312500000001 0.13975854166666665 1.0182291666666667 0.41927083333333337C19.985227083333335 3.5737831250000003 20.125 3.9131960416666667 20.125 4.3125v7.882291666666666c-0.39928958333333336 -0.20762291666666668 -0.8145833333333333 -0.359375 -1.2458333333333333 -0.4552083333333333 -0.43125 -0.09583333333333334 -0.8705020833333333 -0.14375 -1.3177083333333335 -0.14375 -0.22362708333333334 0 -0.4392520833333333 0.011979166666666667 -0.6468750000000001 0.0359375 -0.20762291666666668 0.023958333333333335 -0.41529375 0.059895833333333336 -0.6229166666666667 0.1078125v-0.9583333333333334H6.708333333333334v1.4375h8.241666666666667c-0.575 0.2875 -1.0901041666666667 0.6588541666666667 -1.5453125 1.1140625000000002 -0.4552083333333333 0.4552083333333333 -0.8265625000000001 0.9623104166666668 -1.1140625000000002 1.5213541666666666H6.708333333333334v1.4375h5.055208333333334c-0.04791666666666667 0.20762291666666668 -0.08385416666666666 0.41529375 -0.1078125 0.6229166666666667 -0.023958333333333335 0.20762291666666668 -0.0359375 0.42324791666666667 -0.0359375 0.6468750000000001 0 0.4632104166666667 0.04791666666666667 0.9024145833333334 0.14375 1.3177083333333335 0.09583333333333334 0.41529375 0.2475854166666667 0.8305395833333334 0.4552083333333333 1.2458333333333333Z" stroke-width="1"></path></svg>