<svg xmlns="http://www.w3.org/2000/svg" fill="none" viewBox="-0.5 -0.5 24 24" id="Pending-Actions-Fill--Streamline-Outlined-Fill-Material-Symbols.svg" height="24" width="24"><desc>Pending Actions Fill Streamline Icon: https://streamlinehq.com</desc><path fill="#000000" d="M16.555208333333333 21.083333333333336c-1.2526854166666668 0 -2.3206041666666666 -0.44145625 -3.2037083333333336 -1.3244166666666666 -0.8829604166666667 -0.8831041666666667 -1.3244166666666666 -1.9510229166666666 -1.3244166666666666 -3.2037083333333336s0.44145625 -2.3206041666666666 1.3244166666666666 -3.2037083333333336c0.8831041666666667 -0.8829604166666667 1.9510229166666666 -1.3244166666666666 3.2037083333333336 -1.3244166666666666s2.3206041666666666 0.44145625 3.2037083333333336 1.3244166666666666C20.641877083333334 14.234604166666667 21.083333333333336 15.302522916666668 21.083333333333336 16.555208333333333s-0.44145625 2.3206041666666666 -1.3244166666666666 3.2037083333333336C18.875812500000002 20.641877083333334 17.807893749999998 21.083333333333336 16.555208333333333 21.083333333333336Zm1.3953333333333333 -2.1083333333333334 0.6650833333333334 -0.6708333333333333 -1.796875 -1.796875v-2.683333333333333h-0.9343750000000001v3.01875l2.0661666666666667 2.1322916666666667ZM4.3125 20.125c-0.3953125 0 -0.733685625 -0.14077916666666668 -1.0151145833333335 -0.4223854166666667C3.0157935416666666 19.4212 2.875 19.082812500000003 2.875 18.6875V4.3125c0 -0.41527937500000006 0.13576229166666667 -0.7586789583333333 0.40729166666666666 -1.0302083333333334S3.8972206250000005 2.875 4.3125 2.875h4.839583333333334c0.11178958333333334 -0.559029375 0.3873104166666667 -1.0182291666666667 0.8265625000000001 -1.3776041666666667C10.417897916666668 1.1380208333333335 10.925 0.9583333333333334 11.5 0.9583333333333334c0.575 0 1.0821020833333335 0.1796875 1.5213541666666666 0.5390625 0.4392520833333333 0.359375 0.7147729166666668 0.8185747916666667 0.8265625000000001 1.3776041666666667H18.6875c0.41529375 0 0.7586645833333333 0.13576229166666667 1.0302083333333334 0.40729166666666666S20.125 3.8972206250000005 20.125 4.3125v7.379166666666667c-0.23958333333333334 -0.14375 -0.47533333333333333 -0.26737500000000003 -0.70725 -0.370875 -0.2317729166666667 -0.10350000000000001 -0.4751895833333334 -0.1955 -0.7302500000000001 -0.27599999999999997V4.3125h-1.4375v2.15625H5.75V4.3125H4.3125v14.375h6.708333333333334c0.07987708333333333 0.23958333333333334 0.17571041666666667 0.4751895833333334 0.2875 0.7067708333333333 0.11178958333333334 0.23158125000000002 0.2475854166666667 0.4751895833333334 0.40729166666666666 0.7307291666666667H4.3125ZM11.5 4.3125c0.27154375000000003 0 0.49914791666666675 -0.091841875 0.6828125 -0.2755208333333333C12.366477083333333 3.8533002083333336 12.458333333333334 3.625696041666667 12.458333333333334 3.354166666666667s-0.09185625000000001 -0.49913354166666674 -0.2755208333333333 -0.6828125C11.999147916666667 2.4876752083333336 11.771543750000001 2.3958333333333335 11.5 2.3958333333333335c-0.27154375000000003 0 -0.49914791666666675 0.091841875 -0.6828125 0.2755208333333333C10.633522916666667 2.8550331250000003 10.541666666666668 3.082637291666667 10.541666666666668 3.354166666666667s0.09185625000000001 0.49913354166666674 0.2755208333333333 0.6828125c0.18366458333333333 0.18367895833333334 0.41126875 0.2755208333333333 0.6828125 0.2755208333333333Z" stroke-width="1"></path></svg>