<svg viewBox="-0.5 -0.5 16 16" fill="#000000" xmlns="http://www.w3.org/2000/svg" id="Settings-5-Fill--Streamline-Remix-Fill.svg" height="16" width="16"><desc>Settings 5 Fill Streamline Icon: https://streamlinehq.com</desc><path d="M1.3320437500000002 8.51925c-0.11379375 -0.6849375000000001 -0.1100375 -1.373 0.00055625 -2.0383125 0.68825625 0.01675 1.3072375 -0.31345 1.54780625 -0.89424375 0.24057499999999998 -0.58079375 0.036375000000000005 -1.2519625 -0.46211875 -1.7268125 0.39224375 -0.54864375 0.8761187500000001 -1.03783125 1.44090625 -1.4416875 0.47486874999999995 0.49878125 1.14624375 0.70315625 1.72719375 0.46251875 0.58095 -0.24063749999999998 0.9111750000000001 -0.8598875 0.8942375 -1.5483625 0.6849375000000001 -0.11379375 1.373 -0.1100375 2.0383125 0.00055625 -0.0166875 0.68825 0.3135 1.30723125 0.8943125000000001 1.54780625 0.58075 0.24057499999999998 1.2519375 0.03636875 1.7268125 -0.46211875 0.548625 0.39224375 1.0378125 0.8761125000000001 1.4416875 1.44090625 -0.4988125 0.47486874999999995 -0.7031875 1.14624375 -0.4625625 1.72719375 0.240625 0.58095 0.859875 0.9111812499999999 1.5483749999999998 0.89424375 0.11381250000000001 0.6849375000000001 0.11006250000000001 1.373 -0.0005625 2.0383125 -0.68825 -0.0166875 -1.30725 0.3135 -1.5478125 0.89425 -0.2405625 0.5808125 -0.036375000000000005 1.252 0.46212499999999995 1.7268125 -0.39225000000000004 0.5486875 -0.8761249999999999 1.037875 -1.4408750000000001 1.4416875 -0.47487500000000005 -0.49875 -1.14625 -0.703125 -1.7271875 -0.4625 -0.581 0.240625 -0.9111875 0.859875 -0.8943125000000001 1.5483749999999998 -0.6849375000000001 0.11381250000000001 -1.373 0.11006250000000001 -2.03825 -0.0005625 0.0166875 -0.68825 -0.31350625 -1.30725 -0.8943 -1.5478125 -0.58079375 -0.2405625 -1.2519625 -0.036375000000000005 -1.7268125 0.46212499999999995 -0.54864375 -0.39225000000000004 -1.03783125 -0.8761249999999999 -1.4416875 -1.4408750000000001 0.49878125 -0.47487500000000005 0.70315625 -1.14625 0.46251875 -1.72725 -0.24063749999999998 -0.5809375 -0.8598812499999999 -0.911125 -1.5483625 -0.89425Zm6.1677687500000005 0.8558749999999999c1.0355 0 1.875 -0.8394999999999999 1.875 -1.875 0 -1.0355625 -0.8394999999999999 -1.8750125 -1.875 -1.8750125 -1.0355625 0 -1.87500625 0.83945 -1.87500625 1.8750125 0 1.0355 0.83944375 1.875 1.87500625 1.875Z" stroke-width="1"></path></svg>