<svg xmlns="http://www.w3.org/2000/svg" fill="none" viewBox="-0.5 -0.5 24 24" id="Garden-Cart-Fill--Streamline-Outlined-Fill-Material-Symbols.svg" height="24" width="24"><desc>Garden Cart Fill Streamline Icon: https://streamlinehq.com</desc><path fill="#000000" d="M6.7562500000000005 20.125c-0.5430395833333334 0 -1.00625 -0.19166666666666668 -1.3895833333333334 -0.575 -0.38333333333333336 -0.38333333333333336 -0.575 -0.8544979166666667 -0.575 -1.4135416666666667V9.008333333333335L2.8510416666666667 4.3125H0.9583333333333334V2.875h2.8510416666666667l1.6052083333333333 3.8333333333333335h15.045833333333333c0.27154375000000003 0 0.4791666666666667 0.11581458333333333 0.6229166666666667 0.34739583333333335 0.14375 0.23158125000000002 0.15175208333333334 0.46718750000000003 0.023958333333333335 0.7067708333333333L18.1125 13.65625c0.8145833333333333 0.09583333333333334 1.49341875 0.44720625 2.0364583333333335 1.0541666666666667 0.5430395833333334 0.6069604166666667 0.8145833333333333 1.325710416666667 0.8145833333333333 2.15625 0 0.8944604166666668 -0.31145833333333334 1.6571020833333334 -0.9343750000000001 2.2880208333333334 -0.6229166666666667 0.63091875 -1.3815812500000002 0.9463541666666667 -2.276041666666667 0.9463541666666667 -0.9104166666666667 0 -1.6770833333333335 -0.3154354166666667 -2.3 -0.9463541666666667 -0.6229166666666667 -0.63091875 -0.9343750000000001 -1.3935604166666669 -0.9343750000000001 -2.2880208333333334 0 -0.31946041666666664 0.04393958333333334 -0.63091875 0.13177083333333334 -0.9343750000000001 0.08783125 -0.30345625 0.21960208333333334 -0.5830020833333333 0.3953125 -0.8385416666666667l-3.6656250000000004 -0.31145833333333334 -2.9708333333333337 4.432291666666667c-0.17571041666666667 0.27154375000000003 -0.41126875 0.49114583333333334 -0.7067708333333333 0.6588541666666667 -0.29550208333333333 0.16770833333333332 -0.6109375 0.2515625 -0.9463541666666667 0.2515625Zm0.023958333333333335 -1.4614583333333333c0.031960416666666665 0 0.17571041666666667 -0.07987708333333333 0.43125 -0.23958333333333334l2.5395833333333333 -3.785416666666667c-0.6548770833333334 -0.06387291666666667 -1.2817708333333333 -0.22362708333333334 -1.8807291666666666 -0.4791666666666667s-1.0421875 -0.70279375 -1.3296875 -1.3416666666666666l-0.31145833333333334 -0.6708333333333333V18.160416666666666c0 0.14375 0.059895833333333336 0.2635416666666667 0.1796875 0.359375 0.11979166666666667 0.09583333333333334 0.24356041666666667 0.14375 0.3713541666666667 0.14375Zm10.948958333333334 -0.09583333333333334c0.5111270833333333 0 0.9383520833333333 -0.17571041666666667 1.2817708333333333 -0.5270833333333333 0.34341875 -0.35137291666666665 0.5151041666666667 -0.77466875 0.5151041666666667 -1.2697916666666667 0 -0.5111270833333333 -0.17168541666666667 -0.9383520833333333 -0.5151041666666667 -1.2817708333333333 -0.34341875 -0.34341875 -0.7706437500000001 -0.5151041666666667 -1.2817708333333333 -0.5151041666666667 -0.49512291666666675 0 -0.9184187500000001 0.17168541666666667 -1.2697916666666667 0.5151041666666667 -0.35137291666666665 0.34341875 -0.5270833333333333 0.7706437500000001 -0.5270833333333333 1.2817708333333333 0 0.49512291666666675 0.17571041666666667 0.9184187500000001 0.5270833333333333 1.2697916666666667 0.35137291666666665 0.35137291666666665 0.77466875 0.5270833333333333 1.2697916666666667 0.5270833333333333Z" stroke-width="1"></path></svg>