<svg xmlns="http://www.w3.org/2000/svg" fill="none" viewBox="-0.5 -0.5 24 24" id="Book-2-Fill--Streamline-Outlined-Fill-Material-Symbols.svg" height="24" width="24"><desc>Book 2 Fill Streamline Icon: https://streamlinehq.com</desc><path fill="#000000" d="M6.947916666666667 21.083333333333336c-0.8625 0 -1.59720625 -0.30345625 -2.2041666666666666 -0.9104166666666667C4.136803958333334 19.565956250000003 3.8333333333333335 18.83125 3.8333333333333335 17.96875v-12.9375c0 -0.8625 0.303470625 -1.597220625 0.9104166666666667 -2.2041666666666666C5.350710416666667 2.2201372916666666 6.085416666666666 1.9166666666666667 6.947916666666667 1.9166666666666667H19.166666666666668v14.375c-0.41529375 0 -0.7586645833333333 0.16770833333333332 -1.0302083333333334 0.503125 -0.27154375000000003 0.33541666666666664 -0.40729166666666666 0.7267520833333333 -0.40729166666666666 1.1739583333333334 0 0.44720625 0.13574791666666666 0.8385416666666667 0.40729166666666666 1.1739583333333334 0.27154375000000003 0.33541666666666664 0.6149145833333334 0.503125 1.0302083333333334 0.503125v1.4375H6.947916666666667ZM7.666666666666667 14.854166666666668h1.4375V3.354166666666667h-1.4375v11.5Zm-0.71875 4.791666666666667h9.798958333333333c-0.14375 -0.23958333333333334 -0.2555395833333333 -0.503125 -0.33541666666666664 -0.790625 -0.07987708333333333 -0.2875 -0.11979166666666667 -0.5830020833333333 -0.11979166666666667 -0.8864583333333335 0 -0.31946041666666664 0.03991458333333334 -0.6189395833333334 0.11979166666666667 -0.8984375 0.07987708333333333 -0.2794979166666667 0.19966875 -0.5390625 0.359375 -0.7786458333333334H6.947916666666667c-0.4632104166666667 0 -0.8585229166666667 0.16373125 -1.1859375 0.49114583333333334C5.434564583333334 17.110227083333335 5.270833333333334 17.505539583333334 5.270833333333334 17.96875c0 0.4632104166666667 0.16373125 0.8585229166666667 0.49114583333333334 1.1859375 0.32741458333333334 0.32741458333333334 0.7227270833333334 0.49114583333333334 1.1859375 0.49114583333333334Z" stroke-width="1"></path></svg>